<svg width="24" height="24" viewBox="0 0 24 24" fill="none" xmlns="http://www.w3.org/2000/svg">
<mask id="mask0_178_680" style="mask-type:alpha" maskUnits="userSpaceOnUse" x="0" y="0" width="24" height="24">
<rect width="24" height="24" fill="#D9D9D9"/>
</mask>
<g mask="url(#mask0_178_680)">
<path d="M5.80775 21C5.30258 21 4.875 20.825 4.525 20.475C4.175 20.125 4 19.6974 4 19.1923V5.80775C4 5.30258 4.175 4.875 4.525 4.525C4.875 4.175 5.30258 4 5.80775 4H13.3077V5.5H5.80775C5.71792 5.5 5.64417 5.52883 5.5865 5.5865C5.52883 5.64417 5.5 5.71792 5.5 5.80775V19.1923C5.5 19.2821 5.52883 19.3558 5.5865 19.4135C5.64417 19.4712 5.71792 19.5 5.80775 19.5H19.1923C19.2821 19.5 19.3558 19.4712 19.4135 19.4135C19.4712 19.3558 19.5 19.2821 19.5 19.1923V11.6923H21V19.1923C21 19.6974 20.825 20.125 20.475 20.475C20.125 20.825 19.6974 21 19.1923 21H5.80775ZM6.88475 17.1923H18.1152L14.625 12.5385L11.625 16.4327L9.5 13.7308L6.88475 17.1923ZM17.5 9.5V7.5H15.5V6H17.5V4H19V6H21V7.5H19V9.5H17.5Z" fill="#111111"/>
</g>
</svg>
