<svg width="24" height="24" viewBox="0 0 24 24" fill="none" xmlns="http://www.w3.org/2000/svg">
<mask id="mask0_214_700" style="mask-type:alpha" maskUnits="userSpaceOnUse" x="0" y="0" width="24" height="24">
<rect width="24" height="24" fill="#D9D9D9"/>
</mask>
<g mask="url(#mask0_214_700)">
<path d="M3.80775 20.1153C3.30258 20.1153 2.875 19.9403 2.525 19.5903C2.175 19.2403 2 18.8127 2 18.3075V4.923C2 4.41783 2.175 3.99025 2.525 3.64025C2.875 3.29025 3.30258 3.11525 3.80775 3.11525H5.19225V1H6.73075V3.11525H14.3078V1H15.8078V3.11525H17.1923C17.6974 3.11525 18.125 3.29025 18.475 3.64025C18.825 3.99025 19 4.41783 19 4.923V10.769H17.5V8.923H3.5V18.3075C3.5 18.3845 3.53208 18.455 3.59625 18.519C3.66025 18.5832 3.73075 18.6153 3.80775 18.6153H10.6443V20.1153H3.80775ZM17.5 22.4615C16.3603 22.4615 15.3572 22.1112 14.4905 21.4105C13.6238 20.7098 13.061 19.8293 12.802 18.769H14.0443C14.2866 19.5088 14.7183 20.1105 15.3395 20.574C15.9607 21.0373 16.6808 21.269 17.5 21.269C18.5115 21.269 19.3733 20.9129 20.0855 20.2008C20.7977 19.4886 21.1538 18.6268 21.1538 17.6153C21.1538 16.6038 20.7977 15.7419 20.0855 15.0297C19.3733 14.3176 18.5115 13.9615 17.5 13.9615C16.9525 13.9615 16.4352 14.0794 15.948 14.3153C15.4608 14.5511 15.0365 14.869 14.675 15.269H16.3463V16.4615H12.6538V12.769H13.8463V14.4058C14.3089 13.9146 14.8563 13.519 15.4885 13.219C16.1205 12.919 16.791 12.769 17.5 12.769C18.8385 12.769 19.9808 13.2421 20.927 14.1883C21.8732 15.1344 22.3463 16.2768 22.3463 17.6153C22.3463 18.9538 21.8732 20.0961 20.927 21.0423C19.9808 21.9884 18.8385 22.4615 17.5 22.4615ZM3.5 7.423H17.5V4.923C17.5 4.846 17.4679 4.7755 17.4038 4.7115C17.3398 4.64733 17.2693 4.61525 17.1923 4.61525H3.80775C3.73075 4.61525 3.66025 4.64733 3.59625 4.7115C3.53208 4.7755 3.5 4.846 3.5 4.923V7.423Z" fill="#111111"/>
</g>
</svg>
